<svg width="646" height="630" viewBox="0 0 646 630" fill="none" xmlns="http://www.w3.org/2000/svg">
<path d="M499.261 73.4615C547.365 112.546 590.745 154.208 616.085 207.465C641.855 260.723 649.586 326.007 643.143 398.593C636.271 471.178 615.226 551.065 563.256 591.009C511.287 630.952 428.393 630.523 346.789 628.375C265.613 626.228 185.726 622.792 119.154 588.002C52.581 552.783 -1.10648 486.211 0.611525 418.779C2.32952 351.348 59.0235 283.057 102.403 229.37C145.353 175.253 175.418 135.739 213.644 93.648C251.869 51.1275 298.685 5.60051 348.507 1.30551C398.329 -2.98949 451.586 33.9475 499.261 73.4615Z" fill="#F2B705"/>
</svg>
